<svg width="46" height="39" viewBox="0 0 46 39" fill="none" xmlns="http://www.w3.org/2000/svg">
<path d="M42.5833 4.50001C42.1525 4.50071 41.7277 4.60051 41.3417 4.79168C41.2122 3.59669 40.6566 2.48833 39.7767 1.66956C38.8967 0.8508 37.7512 0.376436 36.55 0.333344H9.45C8.25026 0.378395 7.10678 0.853633 6.22853 1.67222C5.35027 2.4908 4.79588 3.59806 4.66667 4.79168C4.2781 4.59926 3.85026 4.49943 3.41667 4.50001C2.64312 4.50001 1.90125 4.8073 1.35427 5.35428C0.807291 5.90126 0.5 6.64313 0.5 7.41668V9.08334C0.5 9.85689 0.807291 10.5988 1.35427 11.1457C1.90125 11.6927 2.64312 12 3.41667 12C3.84876 12.004 4.27614 11.91 4.66667 11.725V37.8333C4.66667 38.0544 4.75446 38.2663 4.91074 38.4226C5.06702 38.5789 5.27899 38.6667 5.5 38.6667H12.675C12.896 38.6667 13.108 38.5789 13.2643 38.4226C13.4205 38.2663 13.5083 38.0544 13.5083 37.8333V35.15H32.525V37.8333C32.525 38.0544 32.6128 38.2663 32.7691 38.4226C32.9254 38.5789 33.1373 38.6667 33.3583 38.6667H40.5C40.721 38.6667 40.933 38.5789 41.0893 38.4226C41.2455 38.2663 41.3333 38.0544 41.3333 37.8333V11.725C41.7239 11.91 42.1512 12.004 42.5833 12C42.9664 12 43.3456 11.9246 43.6995 11.778C44.0534 11.6314 44.3749 11.4166 44.6457 11.1457C44.9166 10.8749 45.1314 10.5534 45.278 10.1995C45.4246 9.84564 45.5 9.46637 45.5 9.08334V7.41668C45.5 7.03365 45.4246 6.65438 45.278 6.30052C45.1314 5.94665 44.9166 5.62512 44.6457 5.35428C44.3749 5.08344 44.0534 4.86861 43.6995 4.72203C43.3456 4.57545 42.9664 4.50001 42.5833 4.50001ZM39.6667 9.44168V20.275H23.8333V6.16668H39.6667V9.44168ZM12.6417 33.4833H8.60833C8.00116 33.4724 7.42256 33.2235 6.99707 32.7902C6.57158 32.357 6.33323 31.7739 6.33333 31.1667V21.925H39.6667V31.1667C39.6667 31.7797 39.4237 32.3676 38.9911 32.8019C38.5584 33.2361 37.9713 33.4811 37.3583 33.4833H12.6417ZM6.33333 9.44168V6.16668H22.1667V20.2583H6.33333V9.44168ZM9.45 2.00001H36.55C37.2568 2.03976 37.9325 2.30347 38.4794 2.75295C39.0262 3.20242 39.4158 3.81432 39.5917 4.50001H6.40833C6.58419 3.81432 6.97376 3.20242 7.52062 2.75295C8.06749 2.30347 8.74324 2.03976 9.45 2.00001ZM3.41667 10.3333C3.08515 10.3333 2.7672 10.2016 2.53278 9.96723C2.29836 9.73281 2.16667 9.41486 2.16667 9.08334V7.41668C2.12909 7.08516 2.22476 6.75229 2.43261 6.4913C2.64046 6.23031 2.94348 6.06258 3.275 6.02501C3.60652 5.98744 3.93939 6.0831 4.20038 6.29095C4.46136 6.49881 4.62909 6.80182 4.66667 7.13334V9.36668C4.6015 9.64711 4.44154 9.89645 4.21379 10.0726C3.98604 10.2487 3.70447 10.3408 3.41667 10.3333ZM11.8083 37H6.33333V34.4083H6.38333L6.54167 34.5C6.68988 34.5915 6.84287 34.6749 7 34.75L7.21667 34.8417C7.37494 34.9004 7.53629 34.9505 7.7 34.9917L7.91667 35.0417C8.15563 35.0881 8.39825 35.1132 8.64167 35.1167H11.8417L11.8083 37ZM39.6667 37H34.1917V35.15H37.3917C37.6351 35.1465 37.8777 35.1214 38.1167 35.075L38.3333 35.025C38.497 34.9838 38.6584 34.9337 38.8167 34.875L39.0333 34.7833C39.1905 34.7082 39.3435 34.6248 39.4917 34.5333L39.65 34.4417H39.7L39.6667 37ZM43.8333 9.08334C43.8709 9.41486 43.7752 9.74773 43.5674 10.0087C43.3595 10.2697 43.0565 10.4374 42.725 10.475C42.3935 10.5126 42.0606 10.4169 41.7996 10.2091C41.5386 10.0012 41.3709 9.6982 41.3333 9.36668V7.13334C41.3709 6.80182 41.5386 6.49881 41.7996 6.29095C42.0606 6.0831 42.3935 5.98744 42.725 6.02501C43.0565 6.06258 43.3595 6.23031 43.5674 6.4913C43.7752 6.75229 43.8709 7.08516 43.8333 7.41668V9.08334Z" fill="white"/>
<path d="M10.33 26.9898C10.649 26.7779 11.0237 26.6654 11.4066 26.6667C11.9171 26.6685 12.4061 26.872 12.7671 27.233C13.128 27.5939 13.3316 28.083 13.3333 28.5934C13.3346 28.9764 13.2222 29.3511 13.0103 29.67C12.7983 29.989 12.4965 30.2378 12.1429 30.385C11.7894 30.5321 11.4001 30.5709 11.0245 30.4966C10.6488 30.4222 10.3037 30.2379 10.0329 29.9671C9.76216 29.6963 9.57789 29.3513 9.5035 28.9756C9.42912 28.6 9.46796 28.2107 9.61511 27.8571C9.76226 27.5036 10.0111 27.2017 10.33 26.9898Z" stroke="#5E94FF"/>
<path d="M33.8634 27.1564C34.1823 26.9445 34.557 26.832 34.9399 26.8334C35.4504 26.8351 35.9395 27.0387 36.3004 27.3996C36.6614 27.7606 36.8649 28.2496 36.8667 28.7601C36.868 29.143 36.7555 29.5177 36.5436 29.8367C36.3317 30.1556 36.0298 30.4044 35.6762 30.5516C35.3227 30.6987 34.9334 30.7376 34.5578 30.6632C34.1821 30.5888 33.837 30.4045 33.5663 30.1338C33.2955 29.863 33.1112 29.5179 33.0368 29.1422C32.9624 28.7666 33.0013 28.3773 33.1484 28.0238C33.2956 27.6702 33.5444 27.3684 33.8634 27.1564Z" stroke="#5E94FF"/>
</svg>
