<svg width="46" height="45" viewBox="0 0 46 45" fill="none" xmlns="http://www.w3.org/2000/svg">
<path d="M42.5833 10.7811C42.1525 10.7818 41.7277 10.8816 41.3417 11.0727C41.2122 9.87775 40.6566 8.76939 39.7767 7.95062C38.8967 7.13186 37.7512 6.65749 36.55 6.6144H9.45C8.25026 6.65945 7.10678 7.13469 6.22853 7.95327C5.35027 8.77186 4.79588 9.87912 4.66667 11.0727C4.2781 10.8803 3.85026 10.7805 3.41667 10.7811C2.64312 10.7811 1.90125 11.0884 1.35427 11.6353C0.807291 12.1823 0.5 12.9242 0.5 13.6977V15.3644C0.5 16.138 0.807291 16.8798 1.35427 17.4268C1.90125 17.9738 2.64312 18.2811 3.41667 18.2811C3.84876 18.2851 4.27614 18.191 4.66667 18.0061V44.1144C4.66667 44.3354 4.75446 44.5474 4.91074 44.7037C5.06702 44.8599 5.27899 44.9477 5.5 44.9477H12.675C12.896 44.9477 13.108 44.8599 13.2643 44.7037C13.4205 44.5474 13.5083 44.3354 13.5083 44.1144V41.4311H32.525V44.1144C32.525 44.3354 32.6128 44.5474 32.7691 44.7037C32.9254 44.8599 33.1373 44.9477 33.3583 44.9477H40.5C40.721 44.9477 40.933 44.8599 41.0893 44.7037C41.2455 44.5474 41.3333 44.3354 41.3333 44.1144V18.0061C41.7239 18.191 42.1512 18.2851 42.5833 18.2811C42.9664 18.2811 43.3456 18.2056 43.6995 18.0591C44.0534 17.9125 44.3749 17.6976 44.6457 17.4268C44.9166 17.156 45.1314 16.8344 45.278 16.4806C45.4246 16.1267 45.5 15.7474 45.5 15.3644V13.6977C45.5 13.3147 45.4246 12.9354 45.278 12.5816C45.1314 12.2277 44.9166 11.9062 44.6457 11.6353C44.3749 11.3645 44.0534 11.1497 43.6995 11.0031C43.3456 10.8565 42.9664 10.7811 42.5833 10.7811ZM39.6667 15.7227V26.5561H23.8333V12.4477H39.6667V15.7227ZM12.6417 39.7644H8.60833C8.00116 39.7535 7.42256 39.5046 6.99707 39.0713C6.57158 38.638 6.33323 38.055 6.33333 37.4477V28.2061H39.6667V37.4477C39.6667 38.0607 39.4237 38.6487 38.9911 39.0829C38.5584 39.5171 37.9713 39.7622 37.3583 39.7644H12.6417ZM6.33333 15.7227V12.4477H22.1667V26.5394H6.33333V15.7227ZM9.45 8.28107H36.55C37.2568 8.32082 37.9325 8.58453 38.4794 9.03401C39.0262 9.48348 39.4158 10.0954 39.5917 10.7811H6.40833C6.58419 10.0954 6.97376 9.48348 7.52062 9.03401C8.06749 8.58453 8.74324 8.32082 9.45 8.28107ZM3.41667 16.6144C3.08515 16.6144 2.7672 16.4827 2.53278 16.2483C2.29836 16.0139 2.16667 15.6959 2.16667 15.3644V13.6977C2.12909 13.3662 2.22476 13.0333 2.43261 12.7724C2.64046 12.5114 2.94348 12.3436 3.275 12.3061C3.60652 12.2685 3.93939 12.3642 4.20038 12.572C4.46136 12.7799 4.62909 13.0829 4.66667 13.4144V15.6477C4.6015 15.9282 4.44154 16.1775 4.21379 16.3536C3.98604 16.5298 3.70447 16.6219 3.41667 16.6144ZM11.8083 43.2811H6.33333V40.6894H6.38333L6.54167 40.7811C6.68988 40.8725 6.84287 40.956 7 41.0311L7.21667 41.1227C7.37494 41.1815 7.53629 41.2315 7.7 41.2727L7.91667 41.3227C8.15563 41.3692 8.39825 41.3943 8.64167 41.3977H11.8417L11.8083 43.2811ZM39.6667 43.2811H34.1917V41.4311H37.3917C37.6351 41.4276 37.8777 41.4025 38.1167 41.3561L38.3333 41.3061C38.497 41.2649 38.6584 41.2148 38.8167 41.1561L39.0333 41.0644C39.1905 40.9893 39.3435 40.9058 39.4917 40.8144L39.65 40.7227H39.7L39.6667 43.2811ZM43.8333 15.3644C43.8709 15.6959 43.7752 16.0288 43.5674 16.2898C43.3595 16.5508 43.0565 16.7185 42.725 16.7561C42.3935 16.7936 42.0606 16.698 41.7996 16.4901C41.5386 16.2823 41.3709 15.9793 41.3333 15.6477V13.4144C41.3709 13.0829 41.5386 12.7799 41.7996 12.572C42.0606 12.3642 42.3935 12.2685 42.725 12.3061C43.0565 12.3436 43.3595 12.5114 43.5674 12.7724C43.7752 13.0333 43.8709 13.3662 43.8333 13.6977V15.3644Z" fill="white"/>
<path d="M10.33 33.2709C10.649 33.0589 11.0237 32.9465 11.4066 32.9478C11.9171 32.9495 12.4061 33.1531 12.7671 33.514C13.128 33.875 13.3316 34.364 13.3333 34.8745C13.3346 35.2574 13.2222 35.6321 13.0103 35.9511C12.7983 36.27 12.4965 36.5189 12.1429 36.666C11.7894 36.8132 11.4001 36.852 11.0245 36.7776C10.6488 36.7032 10.3037 36.519 10.0329 36.2482C9.76216 35.9774 9.57789 35.6323 9.5035 35.2567C9.42912 34.881 9.46796 34.4917 9.61511 34.1382C9.76226 33.7847 10.0111 33.4828 10.33 33.2709Z" stroke="#5E94FF"/>
<path d="M33.8634 33.4375C34.1823 33.2255 34.557 33.1131 34.9399 33.1144C35.4504 33.1162 35.9395 33.3197 36.3004 33.6807C36.6614 34.0416 36.8649 34.5307 36.8667 35.0411C36.868 35.4241 36.7555 35.7988 36.5436 36.1177C36.3317 36.4367 36.0298 36.6855 35.6762 36.8326C35.3227 36.9798 34.9334 37.0186 34.5578 36.9442C34.1821 36.8699 33.837 36.6856 33.5663 36.4148C33.2955 36.144 33.1112 35.7989 33.0368 35.4233C32.9624 35.0476 33.0013 34.6584 33.1484 34.3048C33.2956 33.9513 33.5444 33.6494 33.8634 33.4375Z" stroke="#5E94FF"/>
<rect x="29" y="0.552269" width="16" height="17" rx="8" fill="#303030"/>
<rect x="29" y="0.552269" width="16" height="17" rx="8" stroke="#5E94FF"/>
<path d="M36.3125 10.7189L37.3437 9.71894M37.3437 9.71894L38.375 8.71894M37.3437 9.71894L36.3125 8.71894M37.3437 9.71894L38.375 10.7189M32.2883 9.58317C32.2883 7.73146 33.9274 6.49691 35.8397 7.11407C36.6592 5.57099 39.6642 5.57094 40.757 8.03998C43.2156 8.96601 42.9424 12.0523 40.757 12.0523H32.5614C31.1955 12.0523 31.1955 9.58317 32.2883 9.58317Z" stroke="#5E94FF"/>
</svg>
