<svg width="41" height="41" viewBox="0 0 41 41" fill="none" xmlns="http://www.w3.org/2000/svg">
<path d="M33.3879 40.1768H7.32886C5.47843 40.1768 3.70379 39.4418 2.39534 38.1333C1.08689 36.8249 0.351807 35.0502 0.351807 33.1998V7.14078C0.355281 5.29263 1.09189 3.52136 2.39997 2.21574C3.70804 0.910126 5.4807 0.176846 7.32886 0.176849H33.3879C34.3024 0.176849 35.208 0.356977 36.0529 0.706947C36.8978 1.05692 37.6655 1.56988 38.3121 2.21654C38.9588 2.8632 39.4717 3.6309 39.8217 4.4758C40.1717 5.3207 40.3518 6.22627 40.3518 7.14078V33.1998C40.3518 35.048 39.6185 36.8206 38.3129 38.1287C37.0073 39.4368 35.236 40.1734 33.3879 40.1768ZM7.32886 3.45554C6.8438 3.45381 6.36317 3.54786 5.91455 3.73229C5.46592 3.91672 5.05811 4.1879 4.71451 4.53027C4.37091 4.87265 4.09829 5.27949 3.91227 5.72747C3.72625 6.17544 3.63049 6.65573 3.6305 7.14078V33.1998C3.6305 34.1807 4.02014 35.1214 4.71372 35.8149C5.4073 36.5085 6.34799 36.8982 7.32886 36.8982H33.3879C33.8729 36.8982 34.3532 36.8024 34.8012 36.6164C35.2492 36.4304 35.656 36.1577 35.9984 35.8141C36.3408 35.4705 36.6119 35.0627 36.7964 34.6141C36.9808 34.1655 37.0748 33.6849 37.0731 33.1998V7.14078C37.0731 6.1634 36.6849 5.22604 35.9937 4.53492C35.3026 3.8438 34.3653 3.45554 33.3879 3.45554H7.32886Z" fill="white"/>
<path d="M15.1321 21.8162C14.6794 21.8147 14.2322 21.7163 13.8207 21.5277C13.245 21.2662 12.7577 20.8432 12.4178 20.3101C12.0779 19.7769 11.9001 19.1566 11.9059 18.5244V1.81619C11.9059 1.38141 12.0786 0.964439 12.3861 0.657002C12.6935 0.349566 13.1105 0.176849 13.5452 0.176849C13.98 0.176849 14.397 0.349566 14.7044 0.657002C15.0119 0.964439 15.1846 1.38141 15.1846 1.81619V18.5244L18.2666 15.7965C18.8458 15.2794 19.595 14.9936 20.3715 14.9936C21.1479 14.9936 21.8972 15.2794 22.4764 15.7965L25.6371 18.5375L25.5321 1.81619C25.5321 1.38141 25.7048 0.964439 26.0123 0.657002C26.3197 0.349566 26.7367 0.176849 27.1715 0.176849C27.6063 0.176849 28.0232 0.349566 28.3307 0.657002C28.6381 0.964439 28.8108 1.38141 28.8108 1.81619V18.5244C28.8167 19.1566 28.6388 19.7769 28.2989 20.3101C27.959 20.8432 27.4717 21.2662 26.8961 21.5277C26.3376 21.7845 25.7163 21.8729 25.1084 21.7821C24.5004 21.6912 23.9321 21.4251 23.4731 21.0162L20.3518 18.3146L17.2305 21.0293C16.6506 21.5391 15.9042 21.819 15.1321 21.8162Z" fill="white"/>
<path d="M8.84827 33.1698H20.6515C21.0863 33.1698 21.5033 32.9971 21.8107 32.6897C22.1182 32.3822 22.2909 31.9653 22.2909 31.5305C22.2909 31.0957 22.1182 30.6787 21.8107 30.3713C21.5033 30.0638 21.0863 29.8911 20.6515 29.8911H8.84827C8.41349 29.8911 7.99651 30.0638 7.68908 30.3713C7.38164 30.6787 7.20892 31.0957 7.20892 31.5305C7.20892 31.9653 7.38164 32.3822 7.68908 32.6897C7.99651 32.9971 8.41349 33.1698 8.84827 33.1698Z" fill="#5E94FF"/>
</svg>
