<svg width="71" height="65" viewBox="0 0 71 65" fill="none" xmlns="http://www.w3.org/2000/svg">
<path d="M13.4825 19.8684H22.1374C22.7865 19.8684 23.2193 19.4825 23.2193 18.9035V11.1842C23.2193 10.6053 22.7865 10.2193 22.1374 10.2193H13.4825C12.8333 10.2193 12.4006 10.6053 12.4006 11.1842V18.9035C12.4006 19.4825 12.8333 19.8684 13.4825 19.8684ZM14.5643 12.1491H21.0556V17.9386H14.5643V12.1491ZM30.7924 19.8684H35.1199C35.769 19.8684 36.2018 19.4825 36.2018 18.9035V15.0439C36.2018 14.4649 35.769 14.079 35.1199 14.079H30.7924C30.1433 14.079 29.7105 14.4649 29.7105 15.0439V18.9035C29.7105 19.4825 30.1433 19.8684 30.7924 19.8684ZM31.8743 16.0088H34.038V17.9386H31.8743V16.0088ZM17.8099 37.2368H22.1374C22.7865 37.2368 23.2193 36.8509 23.2193 36.2719V32.4123C23.2193 31.8333 22.7865 31.4474 22.1374 31.4474H17.8099C17.1608 31.4474 16.7281 31.8333 16.7281 32.4123V36.2719C16.7281 36.8509 17.1608 37.2368 17.8099 37.2368ZM18.8918 33.3772H21.0556V35.307H18.8918V33.3772ZM22.1374 43.0263H13.4825C12.8333 43.0263 12.4006 43.4123 12.4006 43.9912V51.7105C12.4006 52.2895 12.8333 52.6754 13.4825 52.6754H22.1374C22.7865 52.6754 23.2193 52.2895 23.2193 51.7105V43.9912C23.2193 43.4123 22.7865 43.0263 22.1374 43.0263ZM21.0556 50.7456H14.5643V44.9561H21.0556V50.7456ZM58.921 10.2193H50.2661C49.617 10.2193 49.1842 10.6053 49.1842 11.1842V18.9035C49.1842 19.4825 49.617 19.8684 50.2661 19.8684H58.921C59.5702 19.8684 60.0029 19.4825 60.0029 18.9035V11.1842C60.0029 10.6053 59.5702 10.2193 58.921 10.2193ZM57.8392 17.9386H51.3479V12.1491H57.8392V17.9386Z" fill="#5E94FF"/>
<path d="M16.7281 14.079H18.8918V16.0088H16.7281V14.079ZM53.5117 14.079H55.6754V16.0088H53.5117V14.079ZM16.7281 46.886H18.8918V48.8158H16.7281V46.886ZM58.9211 42.0614H54.5936C53.9444 42.0614 53.5117 42.4474 53.5117 43.0263V50.7456H47.0205V32.4123C47.0205 31.8333 46.5877 31.4474 45.9386 31.4474H35.1199C34.4708 31.4474 34.038 31.8333 34.038 32.4123C34.038 32.9912 34.4708 33.3772 35.1199 33.3772H44.8567V51.7105C44.8567 52.2895 45.2895 52.6754 45.9386 52.6754H54.5936C55.2427 52.6754 55.6754 52.2895 55.6754 51.7105V43.9912H57.8392V51.7105C57.8392 52.2895 58.2719 52.6754 58.9211 52.6754C59.5702 52.6754 60.0029 52.2895 60.0029 51.7105V43.0263C60.0029 42.4474 59.5702 42.0614 58.9211 42.0614Z" fill="#5E94FF"/>
<path d="M58.9211 30.4825H54.5936C53.9444 30.4825 53.5117 30.8684 53.5117 31.4474C53.5117 32.0263 53.9444 32.4123 54.5936 32.4123H57.8392V38.2018H50.2661C49.617 38.2018 49.1842 38.5877 49.1842 39.1667V47.8509C49.1842 48.4298 49.617 48.8158 50.2661 48.8158C50.9152 48.8158 51.348 48.4298 51.348 47.8509V40.1316H58.9211C59.5702 40.1316 60.0029 39.7456 60.0029 39.1667V31.4474C60.0029 30.8684 59.5702 30.4825 58.9211 30.4825Z" fill="#5E94FF"/>
<path d="M58.921 21.7983H50.2661C49.617 21.7983 49.1842 22.1842 49.1842 22.7632V35.307C49.1842 35.886 49.617 36.2719 50.2661 36.2719H55.6754C56.3246 36.2719 56.7573 35.886 56.7573 35.307C56.7573 34.7281 56.3246 34.3421 55.6754 34.3421H51.3479V23.7281H57.8392V25.6579H54.5936C53.9444 25.6579 53.5117 26.0439 53.5117 26.6228C53.5117 27.2018 53.9444 27.5877 54.5936 27.5877H58.921C59.5702 27.5877 60.0029 27.2018 60.0029 26.6228V22.7632C60.0029 22.1842 59.5702 21.7983 58.921 21.7983ZM13.4825 23.7281H26.4649C27.114 23.7281 27.5468 23.3421 27.5468 22.7632V12.1491H35.1199C35.769 12.1491 36.2018 11.7632 36.2018 11.1842C36.2018 10.6053 35.769 10.2193 35.1199 10.2193H26.4649C25.8158 10.2193 25.383 10.6053 25.383 11.1842V21.7983H13.4825C12.8333 21.7983 12.4006 22.1842 12.4006 22.7632C12.4006 23.3421 12.8333 23.7281 13.4825 23.7281ZM13.4825 41.0965H29.7105V47.8509C29.7105 48.4298 30.1433 48.8158 30.7924 48.8158C31.4415 48.8158 31.8743 48.4298 31.8743 47.8509V40.1316C31.8743 39.5526 31.4415 39.1667 30.7924 39.1667H14.5643V26.6228C14.5643 26.0439 14.1316 25.6579 13.4825 25.6579C12.8333 25.6579 12.4006 26.0439 12.4006 26.6228V40.1316C12.4006 40.7105 12.8333 41.0965 13.4825 41.0965Z" fill="#5E94FF"/>
<path d="M35.1199 50.7456H27.5468V43.9912C27.5468 43.4123 27.114 43.0263 26.4649 43.0263C25.8158 43.0263 25.383 43.4123 25.383 43.9912V51.7105C25.383 52.2895 25.8158 52.6754 26.4649 52.6754H35.1199C35.769 52.6754 36.2018 52.2895 36.2018 51.7105C36.2018 51.1316 35.769 50.7456 35.1199 50.7456ZM41.6111 35.307H27.5468V26.6228C27.5468 26.0439 27.114 25.6579 26.4649 25.6579H17.8099C17.1608 25.6579 16.7281 26.0439 16.7281 26.6228V28.5526C16.7281 29.1316 17.1608 29.5175 17.8099 29.5175C18.4591 29.5175 18.8918 29.1316 18.8918 28.5526V27.5877H25.383V36.2719C25.383 36.8509 25.8158 37.2368 26.4649 37.2368H41.6111C42.2602 37.2368 42.693 36.8509 42.693 36.2719C42.693 35.693 42.2602 35.307 41.6111 35.307ZM41.6111 43.0263H39.4474C38.7982 43.0263 38.3655 43.4123 38.3655 43.9912C38.3655 44.5702 38.7982 44.9561 39.4474 44.9561H41.6111C42.2602 44.9561 42.693 44.5702 42.693 43.9912C42.693 43.4123 42.2602 43.0263 41.6111 43.0263Z" fill="#5E94FF"/>
<path d="M41.6111 39.1667H35.1199C34.4708 39.1667 34.038 39.5526 34.038 40.1316V47.8509C34.038 48.4298 34.4708 48.8158 35.1199 48.8158H40.5292V50.7456H39.4474C38.7982 50.7456 38.3655 51.1316 38.3655 51.7105C38.3655 52.2895 38.7982 52.6754 39.4474 52.6754H41.6111C42.2602 52.6754 42.693 52.2895 42.693 51.7105V47.8509C42.693 47.2719 42.2602 46.886 41.6111 46.886H36.2018V41.0965H41.6111C42.2602 41.0965 42.693 40.7105 42.693 40.1316C42.693 39.5526 42.2602 39.1667 41.6111 39.1667ZM39.4474 12.1491H44.8567V27.5877H30.7924C30.1433 27.5877 29.7105 27.9737 29.7105 28.5526V32.4123C29.7105 32.9912 30.1433 33.3772 30.7924 33.3772C31.4415 33.3772 31.8743 32.9912 31.8743 32.4123V29.5175H45.9386C46.5877 29.5175 47.0205 29.1316 47.0205 28.5526V11.1842C47.0205 10.6053 46.5877 10.2193 45.9386 10.2193H39.4474C38.7982 10.2193 38.3655 10.6053 38.3655 11.1842C38.3655 11.7632 38.7982 12.1491 39.4474 12.1491Z" fill="#5E94FF"/>
<path d="M29.7105 22.7632V24.693C29.7105 25.2719 30.1433 25.6579 30.7924 25.6579C31.4415 25.6579 31.8743 25.2719 31.8743 24.693V23.7281H39.4474C40.0965 23.7281 40.5292 23.3421 40.5292 22.7632V16.0088H41.6111C42.2602 16.0088 42.693 15.6228 42.693 15.0439C42.693 14.4649 42.2602 14.079 41.6111 14.079H39.4474C38.7982 14.079 38.3655 14.4649 38.3655 15.0439V21.7983H30.7924C30.1433 21.7983 29.7105 22.1842 29.7105 22.7632Z" fill="#5E94FF"/>
<path d="M3 20.9869C3.66304 20.9869 4.29893 20.7443 4.76777 20.3124C5.23661 19.8806 5.5 19.2949 5.5 18.6842V7.17107C5.5 6.56038 5.76339 5.9747 6.23223 5.54287C6.70107 5.11104 7.33696 4.86844 8 4.86844H21.75C22.413 4.86844 23.0489 4.62585 23.5178 4.19402C23.9866 3.76219 24.25 3.17651 24.25 2.56581C24.25 1.95512 23.9866 1.36944 23.5178 0.937608C23.0489 0.505781 22.413 0.263184 21.75 0.263184H8C6.01088 0.263184 4.10322 0.990977 2.6967 2.28646C1.29018 3.58194 0.5 5.33899 0.5 7.17107V18.6842C0.5 19.2949 0.763392 19.8806 1.23223 20.3124C1.70107 20.7443 2.33696 20.9869 3 20.9869ZM63 0.263184H49.25C48.587 0.263184 47.9511 0.505781 47.4822 0.937608C47.0134 1.36944 46.75 1.95512 46.75 2.56581C46.75 3.17651 47.0134 3.76219 47.4822 4.19402C47.9511 4.62585 48.587 4.86844 49.25 4.86844H63C63.663 4.86844 64.2989 5.11104 64.7678 5.54287C65.2366 5.9747 65.5 6.56038 65.5 7.17107V18.6842C65.5 19.2949 65.7634 19.8806 66.2322 20.3124C66.7011 20.7443 67.337 20.9869 68 20.9869C68.663 20.9869 69.2989 20.7443 69.7678 20.3124C70.2366 19.8806 70.5 19.2949 70.5 18.6842V7.17107C70.5 5.33899 69.7098 3.58194 68.3033 2.28646C66.8968 0.990977 64.9891 0.263184 63 0.263184ZM68 44.0132C67.337 44.0132 66.7011 44.2557 66.2322 44.6876C65.7634 45.1194 65.5 45.7051 65.5 46.3158V57.8289C65.5 58.4396 65.2366 59.0253 64.7678 59.4571C64.2989 59.889 63.663 60.1316 63 60.1316H49.25C48.587 60.1316 47.9511 60.3742 47.4822 60.806C47.0134 61.2378 46.75 61.8235 46.75 62.4342C46.75 63.0449 47.0134 63.6306 47.4822 64.0624C47.9511 64.4942 48.587 64.7368 49.25 64.7368H63C64.9891 64.7368 66.8968 64.009 68.3033 62.7136C69.7098 61.4181 70.5 59.661 70.5 57.8289V46.3158C70.5 45.7051 70.2366 45.1194 69.7678 44.6876C69.2989 44.2557 68.663 44.0132 68 44.0132ZM21.75 60.1316H8C7.33696 60.1316 6.70107 59.889 6.23223 59.4571C5.76339 59.0253 5.5 58.4396 5.5 57.8289V46.3158C5.5 45.7051 5.23661 45.1194 4.76777 44.6876C4.29893 44.2557 3.66304 44.0132 3 44.0132C2.33696 44.0132 1.70107 44.2557 1.23223 44.6876C0.763392 45.1194 0.5 45.7051 0.5 46.3158V57.8289C0.5 59.661 1.29018 61.4181 2.6967 62.7136C4.10322 64.009 6.01088 64.7368 8 64.7368H21.75C22.413 64.7368 23.0489 64.4942 23.5178 64.0624C23.9866 63.6306 24.25 63.0449 24.25 62.4342C24.25 61.8235 23.9866 61.2378 23.5178 60.806C23.0489 60.3742 22.413 60.1316 21.75 60.1316ZM68 30.1974H3C2.33696 30.1974 1.70107 30.44 1.23223 30.8718C0.763392 31.3036 0.5 31.8893 0.5 32.5C0.5 33.1107 0.763392 33.6964 1.23223 34.1282C1.70107 34.56 2.33696 34.8026 3 34.8026H68C68.663 34.8026 69.2989 34.56 69.7678 34.1282C70.2366 33.6964 70.5 33.1107 70.5 32.5C70.5 31.8893 70.2366 31.3036 69.7678 30.8718C69.2989 30.44 68.663 30.1974 68 30.1974Z" fill="#EFEAEA"/>
</svg>
