<svg width="40" height="40" viewBox="0 0 40 40" fill="none" xmlns="http://www.w3.org/2000/svg">
<path d="M33.0361 40H6.97705C5.12662 40 3.35198 39.2649 2.04353 37.9565C0.73508 36.648 0 34.8734 0 33.0229V6.96393C0.00347398 5.11578 0.740087 3.34451 2.04816 2.03889C3.35624 0.733276 5.12889 -3.26501e-06 6.97705 0H33.0361C33.9506 0 34.8561 0.180127 35.701 0.530098C36.546 0.880068 37.3137 1.39303 37.9603 2.03969C38.607 2.68635 39.1199 3.45405 39.4699 4.29895C39.8199 5.14386 40 6.04942 40 6.96393V33.0229C40 34.8711 39.2667 36.6438 37.9611 37.9518C36.6555 39.2599 34.8842 39.9965 33.0361 40ZM6.97705 3.27869C6.49199 3.27696 6.01137 3.37101 5.56274 3.55544C5.11411 3.73987 4.7063 4.01105 4.3627 4.35342C4.01911 4.6958 3.74648 5.10264 3.56046 5.55062C3.37444 5.99859 3.27869 6.47888 3.27869 6.96393V33.0229C3.27869 34.0038 3.66834 34.9445 4.36191 35.6381C5.05549 36.3317 5.99618 36.7213 6.97705 36.7213H33.0361C33.5211 36.7213 34.0014 36.6256 34.4494 36.4395C34.8974 36.2535 35.3042 35.9809 35.6466 35.6373C35.989 35.2937 36.2601 34.8859 36.4446 34.4373C36.629 33.9886 36.723 33.508 36.7213 33.0229V6.96393C36.7213 5.98655 36.333 5.04919 35.6419 4.35807C34.9508 3.66695 34.0135 3.27869 33.0361 3.27869H6.97705Z" fill="white"/>
<path d="M14.7803 21.6393C14.3276 21.6378 13.8804 21.5394 13.4689 21.3508C12.8932 21.0893 12.4059 20.6663 12.066 20.1332C11.7261 19.6001 11.5483 18.9798 11.5541 18.3475V1.63934C11.5541 1.20456 11.7268 0.787589 12.0343 0.480153C12.3417 0.172716 12.7587 0 13.1934 0C13.6282 0 14.0452 0.172716 14.3526 0.480153C14.6601 0.787589 14.8328 1.20456 14.8328 1.63934V18.3475L17.9148 15.6197C18.494 15.1026 19.2432 14.8168 20.0197 14.8168C20.7961 14.8168 21.5454 15.1026 22.1246 15.6197L25.2852 18.3607L25.1803 1.63934C25.1803 1.20456 25.353 0.787589 25.6605 0.480153C25.9679 0.172716 26.3849 0 26.8197 0C27.2545 0 27.6714 0.172716 27.9789 0.480153C28.2863 0.787589 28.459 1.20456 28.459 1.63934V18.3475C28.4649 18.9798 28.287 19.6001 27.9471 20.1332C27.6072 20.6663 27.1199 21.0893 26.5443 21.3508C25.9858 21.6077 25.3645 21.6961 24.7566 21.6052C24.1486 21.5144 23.5803 21.2482 23.1213 20.8393L20 18.1377L16.8787 20.8525C16.2988 21.3622 15.5524 21.6421 14.7803 21.6393Z" fill="white"/>
<path d="M8.49652 32.993H20.2998C20.7346 32.993 21.1516 32.8203 21.459 32.5128C21.7664 32.2054 21.9391 31.7884 21.9391 31.3536C21.9391 30.9189 21.7664 30.5019 21.459 30.1944C21.1516 29.887 20.7346 29.7143 20.2998 29.7143H8.49652C8.06174 29.7143 7.64477 29.887 7.33733 30.1944C7.02989 30.5019 6.85718 30.9189 6.85718 31.3536C6.85718 31.7884 7.02989 32.2054 7.33733 32.5128C7.64477 32.8203 8.06174 32.993 8.49652 32.993Z" fill="#5E94FF"/>
</svg>
