<svg width="48" height="45" viewBox="0 0 48 45" fill="none" xmlns="http://www.w3.org/2000/svg">
<path d="M32.1236 34.3523C34.4797 34.3523 36.3969 32.4357 36.3969 30.0796C36.3969 27.7236 34.4797 25.8064 32.1236 25.8064C29.7682 25.8064 27.8516 27.723 27.8516 30.0796C27.8516 32.4357 29.7682 34.3523 32.1236 34.3523ZM32.1236 27.6179C33.4812 27.6179 34.5859 28.7226 34.5859 30.0803C34.5859 31.4379 33.4812 32.542 32.1236 32.542C30.7666 32.542 29.6625 31.4379 29.6625 30.0803C29.6625 28.722 30.7666 27.6179 32.1236 27.6179ZM10.3691 25.807C8.01308 25.807 6.09648 27.7236 6.09648 30.0803C6.09648 32.4363 8.01308 34.3529 10.3691 34.3529C12.7252 34.3529 14.6418 32.4363 14.6418 30.0803C14.6418 27.7236 12.7252 25.807 10.3691 25.807ZM10.3691 32.5413C9.01152 32.5413 7.90744 31.4373 7.90744 30.0796C7.90744 28.722 9.01152 27.6173 10.3691 27.6173C11.7268 27.6173 12.8308 28.722 12.8308 30.0796C12.8308 31.4373 11.7268 32.5413 10.3691 32.5413ZM16.3139 28.8772C16.3139 29.3776 16.7196 29.7827 17.2194 29.7827H25.813C26.3129 29.7827 26.7185 29.3776 26.7185 28.8772C26.7185 28.3767 26.3129 27.9717 25.813 27.9717H17.2194C16.7196 27.9717 16.3139 28.3773 16.3139 28.8772ZM25.813 30.2517H17.2194C16.7196 30.2517 16.3139 30.6567 16.3139 31.1572C16.3139 31.6576 16.7196 32.0627 17.2194 32.0627H25.813C26.3129 32.0627 26.7185 31.6576 26.7185 31.1572C26.7185 30.6567 26.3129 30.2517 25.813 30.2517ZM1.40548 17.4989C0.905656 17.4989 0.5 17.9039 0.5 18.4044V23.2771C0.5 23.7775 0.905656 24.1826 1.40548 24.1826C1.90531 24.1826 2.31096 23.7775 2.31096 23.2771V18.4044C2.31096 17.9045 1.90531 17.4989 1.40548 17.4989ZM41.4664 17.4989C40.9666 17.4989 40.5609 17.9039 40.5609 18.4044V23.2771C40.5609 23.7775 40.9666 24.1826 41.4664 24.1826C41.9662 24.1826 42.3719 23.7775 42.3719 23.2771V18.4044C42.3719 17.9045 41.9662 17.4989 41.4664 17.4989Z" fill="white"/>
<path d="M37.143 1.00525C32.5347 1.00525 28.7854 4.75455 28.7854 9.36284C28.7854 10.1373 28.8995 10.884 29.0975 11.5958H4.70747C5.12701 8.73263 7.59233 6.52506 10.5708 6.52506H28.1926C28.6925 6.52506 29.0981 6.12001 29.0981 5.61958C29.0981 5.11915 28.6925 4.7141 28.1926 4.7141H10.5708C6.30051 4.7141 2.82648 8.18813 2.82648 12.4584V39.6729C2.82648 40.1734 3.23214 40.5784 3.73196 40.5784H5.60571V42.3797C5.60571 43.8218 6.77861 44.9947 8.22013 44.9947H11.3555C12.797 44.9947 13.9699 43.8218 13.9699 42.3797V40.5784H29.6837V42.3797C29.6837 43.8218 30.8566 44.9947 32.2981 44.9947H35.4329C36.875 44.9947 38.0479 43.8218 38.0479 42.3797V40.5784H39.0669C39.5667 40.5784 39.9723 40.1734 39.9723 39.6729V17.217C43.1898 16.0537 45.5 12.9769 45.5 9.36284C45.5 4.75455 41.7513 1.00525 37.143 1.00525ZM38.1614 34.962H4.63744V24.188H38.1614V34.962ZM4.63744 22.377V13.4067H20.4942V22.3764L4.63744 22.377ZM12.159 42.3797C12.159 42.8228 11.7986 43.1838 11.3555 43.1838H8.22013C7.77705 43.1838 7.41667 42.8228 7.41667 42.3797V40.5784H12.159V42.3797ZM36.2375 42.3797C36.2375 42.8228 35.8765 43.1838 35.4335 43.1838H32.2987C31.8556 43.1838 31.4952 42.8228 31.4952 42.3797V40.5784H36.2375V42.3797ZM4.63744 38.7674V36.7736H38.1614V38.7674H4.63744ZM38.1614 22.377H22.3052V13.4067H29.8346C31.2616 15.9759 34.0016 17.7204 37.143 17.7204C37.4883 17.7204 37.827 17.6927 38.162 17.6516L38.1614 22.377ZM37.143 15.9095C34.7224 15.9095 32.609 14.5851 31.4765 12.6262C31.4819 12.5851 31.4892 12.5441 31.4892 12.5012C31.4892 12.1704 31.3099 11.8843 31.0455 11.7261C30.7594 10.9921 30.597 10.1965 30.597 9.36284C30.597 5.75299 33.5338 2.81621 37.1436 2.81621C40.7535 2.81621 43.6902 5.75299 43.6902 9.36284C43.6902 12.9727 40.7523 15.9095 37.143 15.9095Z" fill="white"/>
<path d="M29.5 2.50525L30 12.5052L33.5 16.5052H41L45 13.5052L47.5 9.00525L46 3.00525L38 0.00524902L29.5 2.50525Z" fill="#303030"/>
<circle cx="37" cy="9.50525" r="7.6" stroke="#5E94FF" stroke-width="1.8"/>
<path d="M39.0809 6.54291L39.0814 6.54314C39.2845 6.63673 39.3738 6.87711 39.2792 7.08199L39.2791 7.08209L36.9213 12.1938L36.9209 12.1946C36.8744 12.2959 36.7867 12.3741 36.6796 12.409L36.6791 12.4091C36.6381 12.4225 36.5958 12.429 36.5531 12.429C36.4858 12.429 36.4177 12.412 36.3554 12.3776C36.3553 12.3776 36.3552 12.3775 36.3551 12.3774L34.2084 11.1834C34.2084 11.1834 34.2083 11.1834 34.2083 11.1834C34.0127 11.0744 33.9425 10.8278 34.0514 10.632L34.0518 10.6313C34.1597 10.4367 34.4052 10.3652 34.6034 10.4748C34.6035 10.4748 34.6037 10.4749 34.6038 10.475L35.8971 11.1946L36.3684 11.4568L36.5942 10.9671L38.5434 6.74155L38.544 6.74038C38.6366 6.53813 38.877 6.44865 39.0809 6.54291Z" fill="white" stroke="#5E94FF"/>
</svg>
