<svg width="28" height="20" viewBox="0 0 28 20" fill="none" xmlns="http://www.w3.org/2000/svg">
<path d="M11.3888 14.2287L11.6529 14.3929L11.9169 14.2287L13.5359 13.222C13.536 13.2219 13.5362 13.2218 13.5363 13.2217C13.6561 13.1478 13.8125 13.1262 13.9752 13.1691C14.7556 13.4334 16.3609 14.0205 17.7666 14.8772C18.4739 15.3083 19.1077 15.7941 19.5598 16.3225C20.0106 16.8493 20.2557 17.3877 20.2557 17.9396C20.2557 18.2612 20.0025 18.5 19.7271 18.5H3.57857C3.30325 18.5 3.05 18.2612 3.05 17.9396C3.05 17.3877 3.29507 16.8493 3.74592 16.3225C4.19806 15.7941 4.83186 15.3083 5.53915 14.8772C6.9448 14.0205 8.55014 13.4334 9.33052 13.1691C9.49309 13.1262 9.64946 13.1478 9.76922 13.2216C9.76942 13.2217 9.76963 13.2219 9.76983 13.222L11.3888 14.2287ZM24.0214 15.7887H25.0035L24.4258 14.9945C23.9714 14.37 23.2704 13.9022 22.488 13.472C22.3482 13.3951 22.3025 13.2245 22.3759 13.0922L22.3794 13.0859L22.3827 13.0795C22.4563 12.9371 22.607 12.8901 22.752 12.9698C23.2827 13.2625 23.9765 13.7128 24.531 14.2721C25.0924 14.8385 25.45 15.454 25.45 16.0839C25.45 16.2729 25.3253 16.3792 25.1786 16.3792H21.7329C21.5861 16.3792 21.4614 16.2729 21.4614 16.0839C21.4614 15.895 21.5861 15.7887 21.7329 15.7887H24.0214ZM18.4006 6.15443L18.4006 6.15446L18.4054 6.15244C18.7877 5.99015 19.1843 5.90059 19.5986 5.90059C21.2882 5.90059 22.6729 7.30586 22.6729 9.08542C22.6729 10.8626 21.2648 12.2703 19.5986 12.2703C18.717 12.2703 17.8802 11.8843 17.307 11.2026L17.3072 11.2024L17.2979 11.1921C17.1999 11.0818 17.2052 10.8967 17.3301 10.7877L17.3376 10.7811L17.3449 10.7743C17.4397 10.6847 17.5933 10.6838 17.6949 10.8076L17.6949 10.8077L17.7016 10.8155C18.1804 11.375 18.8839 11.7062 19.6243 11.7062V11.7063L19.6366 11.706C20.9986 11.6726 22.13 10.4858 22.13 9.08542C22.13 7.65315 20.9906 6.49116 19.5986 6.49116C19.2483 6.49116 18.9266 6.55778 18.6108 6.68798C18.4748 6.74405 18.314 6.67224 18.2647 6.5452C18.198 6.37317 18.2933 6.19869 18.4006 6.15443ZM16.6043 6.59352C16.6043 9.40539 14.3726 11.687 11.6529 11.687C8.96173 11.687 6.72609 9.40793 6.70143 6.59145C6.70253 3.78052 8.93383 1.5 11.6529 1.5C14.3741 1.5 16.6043 3.7567 16.6043 6.59352Z" fill="white" stroke="black"/>
</svg>
