<svg width="36" height="45" viewBox="0 0 36 45" fill="none" xmlns="http://www.w3.org/2000/svg">
<path d="M25.7344 32.3438H27.1406C27.5136 32.3438 27.8713 32.4919 28.135 32.7556C28.3987 33.0194 28.5469 33.377 28.5469 33.75C28.5469 33.9365 28.621 34.1153 28.7528 34.2472C28.8847 34.379 29.0635 34.4531 29.25 34.4531C29.4365 34.4531 29.6153 34.379 29.7472 34.2472C29.879 34.1153 29.9531 33.9365 29.9531 33.75C29.9509 33.0048 29.6539 32.2907 29.1269 31.7637C28.5999 31.2368 27.8859 30.9397 27.1406 30.9375V30.2344C27.1406 30.0479 27.0665 29.8691 26.9347 29.7372C26.8028 29.6053 26.624 29.5312 26.4375 29.5312C26.251 29.5312 26.0722 29.6053 25.9403 29.7372C25.8085 29.8691 25.7344 30.0479 25.7344 30.2344V30.9375C24.9885 30.9375 24.2731 31.2338 23.7456 31.7613C23.2182 32.2887 22.9219 33.0041 22.9219 33.75C22.9219 34.4959 23.2182 35.2113 23.7456 35.7387C24.2731 36.2662 24.9885 36.5625 25.7344 36.5625H27.1406C27.5136 36.5625 27.8713 36.7107 28.135 36.9744C28.3987 37.2381 28.5469 37.5958 28.5469 37.9688C28.5469 38.3417 28.3987 38.6994 28.135 38.9631C27.8713 39.2268 27.5136 39.375 27.1406 39.375H25.7344C25.3614 39.375 25.0037 39.2268 24.74 38.9631C24.4763 38.6994 24.3281 38.3417 24.3281 37.9688C24.3281 37.7823 24.254 37.6034 24.1222 37.4716C23.9903 37.3397 23.8115 37.2656 23.625 37.2656C23.4385 37.2656 23.2597 37.3397 23.1278 37.4716C22.996 37.6034 22.9219 37.7823 22.9219 37.9688C22.9219 38.7147 23.2182 39.43 23.7456 39.9575C24.2731 40.4849 24.9885 40.7812 25.7344 40.7812V41.4844C25.7344 41.6709 25.8085 41.8497 25.9403 41.9816C26.0722 42.1134 26.251 42.1875 26.4375 42.1875C26.624 42.1875 26.8028 42.1134 26.9347 41.9816C27.0665 41.8497 27.1406 41.6709 27.1406 41.4844V40.7812C27.8865 40.7812 28.6019 40.4849 29.1294 39.9575C29.6568 39.43 29.9531 38.7147 29.9531 37.9688C29.9531 37.2228 29.6568 36.5075 29.1294 35.98C28.6019 35.4526 27.8865 35.1562 27.1406 35.1562H25.7344C25.3614 35.1562 25.0037 35.0081 24.74 34.7444C24.4763 34.4806 24.3281 34.123 24.3281 33.75C24.3281 33.377 24.4763 33.0194 24.74 32.7556C25.0037 32.4919 25.3614 32.3438 25.7344 32.3438ZM26.4375 26.7188C26.1984 26.7188 25.9594 26.7328 25.7344 26.7469V3.51562C25.7344 2.58322 25.364 1.68901 24.7047 1.0297C24.0454 0.370395 23.1512 0 22.2188 0L3.9375 0C3.0051 0 2.11089 0.370395 1.45158 1.0297C0.79227 1.68901 0.421875 2.58322 0.421875 3.51562V41.4844C0.421875 42.4168 0.79227 43.311 1.45158 43.9703C2.11089 44.6296 3.0051 45 3.9375 45H22.2188C22.7708 44.9994 23.3151 44.8694 23.8078 44.6203C24.6623 44.8693 25.5475 44.9971 26.4375 45C28.8617 45 31.1867 44.037 32.9009 42.3228C34.6151 40.6086 35.5781 38.2836 35.5781 35.8594C35.5781 33.4351 34.6151 31.1102 32.9009 29.396C31.1867 27.6818 28.8617 26.7188 26.4375 26.7188ZM3.9375 43.5938C3.37806 43.5938 2.84153 43.3715 2.44595 42.9759C2.05036 42.5803 1.82812 42.0438 1.82812 41.4844V3.51562C1.82812 2.95618 2.05036 2.41966 2.44595 2.02407C2.84153 1.62849 3.37806 1.40625 3.9375 1.40625H22.2188C22.7782 1.40625 23.3147 1.62849 23.7103 2.02407C24.1059 2.41966 24.3281 2.95618 24.3281 3.51562V26.9719C23.8486 27.0857 23.3784 27.2361 22.9219 27.4219V4.92188C22.9219 4.36243 22.6996 3.82591 22.3041 3.43032C21.9085 3.03474 21.3719 2.8125 20.8125 2.8125H17.8734C17.3147 2.81543 16.7794 3.03762 16.3828 3.43125L15.8063 4.00781C15.7435 4.07543 15.6673 4.12915 15.5825 4.16548C15.4977 4.20181 15.4063 4.21996 15.3141 4.21875H10.8422C10.75 4.21996 10.6585 4.20181 10.5737 4.16548C10.4889 4.12915 10.4127 4.07543 10.35 4.00781L9.77344 3.43125C9.37685 3.03762 8.84158 2.81543 8.28281 2.8125H5.34375C4.78431 2.8125 4.24778 3.03474 3.8522 3.43032C3.45661 3.82591 3.23438 4.36243 3.23438 4.92188V35.8594C3.23438 36.0459 3.30845 36.2247 3.44032 36.3566C3.57218 36.4884 3.75102 36.5625 3.9375 36.5625H17.325C17.4335 37.9867 17.8757 39.3653 18.616 40.5869C19.3562 41.8084 20.3737 42.8385 21.5859 43.5938H3.9375ZM21.5156 4.92188V28.1672C20.3235 28.928 19.3245 29.9553 18.5972 31.1682C17.87 32.3811 17.4345 33.7463 17.325 35.1562H4.64062V4.92188C4.64062 4.73539 4.7147 4.55655 4.84657 4.42469C4.97843 4.29283 5.15727 4.21875 5.34375 4.21875H8.28281C8.37504 4.21754 8.4665 4.23569 8.55128 4.27202C8.63606 4.30835 8.71227 4.36207 8.775 4.42969L9.35156 5.00625C9.74815 5.39988 10.2834 5.62207 10.8422 5.625H15.3141C15.8728 5.62207 16.4081 5.39988 16.8047 5.00625L17.3812 4.42969C17.444 4.36207 17.5202 4.30835 17.605 4.27202C17.6898 4.23569 17.7812 4.21754 17.8734 4.21875H20.8125C20.999 4.21875 21.1778 4.29283 21.3097 4.42469C21.4415 4.55655 21.5156 4.73539 21.5156 4.92188ZM26.4375 43.5938C25.9938 43.5948 25.5511 43.5524 25.1156 43.4672C23.4356 43.192 21.896 42.3629 20.7416 41.1117C19.5872 39.8605 18.8845 38.2592 18.7453 36.5625C18.689 36.0954 18.689 35.6233 18.7453 35.1562C18.8349 34.1396 19.1261 33.151 19.6017 32.248C20.0773 31.3451 20.7279 30.5458 21.5156 29.8969C21.9501 29.5424 22.4216 29.236 22.9219 28.9828C23.3695 28.7462 23.8408 28.5577 24.3281 28.4203C24.7865 28.2861 25.2579 28.2012 25.7344 28.1672C25.9677 28.1387 26.2025 28.1246 26.4375 28.125C28.4888 28.125 30.4561 28.9399 31.9065 30.3903C33.357 31.8408 34.1719 33.8081 34.1719 35.8594C34.1719 37.9107 33.357 39.8779 31.9065 41.3284C30.4561 42.7789 28.4888 43.5938 26.4375 43.5938ZM13.0781 37.9688C12.6609 37.9688 12.2531 38.0925 11.9062 38.3242C11.5593 38.556 11.289 38.8855 11.1293 39.2709C10.9697 39.6563 10.9279 40.0805 11.0093 40.4896C11.0907 40.8988 11.2916 41.2747 11.5866 41.5697C11.8816 41.8647 12.2574 42.0656 12.6666 42.147C13.0758 42.2284 13.4999 42.1866 13.8853 42.0269C14.2708 41.8673 14.6002 41.5969 14.832 41.25C15.0638 40.9031 15.1875 40.4953 15.1875 40.0781C15.1875 39.5187 14.9653 38.9822 14.5697 38.5866C14.1741 38.191 13.6376 37.9688 13.0781 37.9688ZM13.0781 40.7812C12.9391 40.7812 12.8031 40.74 12.6875 40.6628C12.5719 40.5855 12.4817 40.4757 12.4285 40.3472C12.3753 40.2187 12.3614 40.0773 12.3885 39.941C12.4156 39.8046 12.4826 39.6793 12.5809 39.5809C12.6793 39.4826 12.8046 39.4156 12.941 39.3885C13.0773 39.3614 13.2187 39.3753 13.3472 39.4285C13.4757 39.4817 13.5855 39.5719 13.6628 39.6875C13.74 39.8031 13.7812 39.9391 13.7812 40.0781C13.7812 40.2646 13.7072 40.4434 13.5753 40.5753C13.4434 40.7072 13.2646 40.7812 13.0781 40.7812Z" fill="white"/>
<path d="M21.4219 33L25.9219 29L26.4219 28.5L30.4219 32.5V42L23.9219 42.5L21.4219 33Z" fill="#303030"/>
<path d="M29.5719 34L29.5719 33.9995C29.5695 33.2509 29.2562 32.5351 28.7028 32.0081C28.1851 31.5151 27.4968 31.2245 26.7719 31.1874V30.6667C26.7719 30.4476 26.6805 30.2392 26.5203 30.0866C26.3604 29.9344 26.145 29.85 25.9219 29.85C25.6987 29.85 25.4834 29.9344 25.3235 30.0866C25.1633 30.2392 25.0719 30.4476 25.0719 30.6667V31.187C24.3462 31.2222 23.6567 31.5123 23.1385 32.0058C22.5845 32.5334 22.2719 33.2505 22.2719 34C22.2719 34.7495 22.5845 35.4666 23.1385 35.9942C23.6923 36.5216 24.4418 36.8167 25.2219 36.8167H26.6219C26.9557 36.8167 27.2745 36.943 27.5084 37.1658C27.7421 37.3884 27.8719 37.6886 27.8719 38C27.8719 38.3114 27.7421 38.6116 27.5084 38.8342C27.2745 39.057 26.9557 39.1833 26.6219 39.1833H25.2219C24.8881 39.1833 24.5693 39.057 24.3354 38.8342C24.1017 38.6116 23.9719 38.3114 23.9719 38C23.9719 37.781 23.8805 37.5725 23.7203 37.42C23.5604 37.2677 23.345 37.1833 23.1219 37.1833C22.8987 37.1833 22.6834 37.2677 22.5235 37.42C22.3633 37.5725 22.2719 37.781 22.2719 38C22.2719 38.7495 22.5845 39.4666 23.1385 39.9942C23.6567 40.4877 24.3462 40.7778 25.0719 40.813V41.3333C25.0719 41.5524 25.1633 41.7608 25.3235 41.9134C25.4834 42.0656 25.6987 42.15 25.9219 42.15C26.145 42.15 26.3604 42.0656 26.5203 41.9134C26.6805 41.7608 26.7719 41.5524 26.7719 41.3333V40.813C27.4975 40.7778 28.1871 40.4877 28.7052 39.9942C29.2592 39.4666 29.5719 38.7495 29.5719 38C29.5719 37.2505 29.2592 36.5334 28.7052 36.0058C28.1515 35.4784 27.402 35.1833 26.6219 35.1833H25.2219C24.8881 35.1833 24.5693 35.057 24.3354 34.8342C24.1017 34.6116 23.9719 34.3114 23.9719 34C23.9719 33.6886 24.1017 33.3884 24.3354 33.1658C24.5693 32.943 24.8881 32.8167 25.2219 32.8167H26.6219C26.9557 32.8167 27.2745 32.943 27.5084 33.1658C27.7421 33.3884 27.8719 33.6886 27.8719 34C27.8719 34.219 27.9633 34.4275 28.1235 34.58C28.2834 34.7323 28.4987 34.8167 28.7219 34.8167C28.945 34.8167 29.1604 34.7323 29.3203 34.58C29.4805 34.4275 29.5719 34.219 29.5719 34Z" fill="#5E94FF" stroke="#5E94FF" stroke-width="0.3"/>
</svg>
