<svg width="48" height="51" viewBox="0 0 48 51" fill="none" xmlns="http://www.w3.org/2000/svg">
<path d="M15.7105 2.0625H3.5C2.39543 2.0625 1.5 2.95793 1.5 4.0625V15.2837M46.5 16.4856V4.0625C46.5 2.95793 45.6046 2.0625 44.5 2.0625H33.4737M1.5 34.5144V46.9375C1.5 48.0421 2.39543 48.9375 3.5 48.9375H14.5263M32.2895 48.9375H44.5C45.6046 48.9375 46.5 48.0421 46.5 46.9375V35.7163" stroke="white" stroke-width="2.5" stroke-linecap="round"/>
<path d="M17.1542 16.1572C17.1542 15.0545 17.624 13.9761 18.5714 13.425C22.1236 11.3585 26.8764 11.3585 30.4286 13.425C31.376 13.9761 31.8458 15.0545 31.8458 16.1572V25.9202C31.8458 26.3435 31.5085 26.6865 31.0924 26.6865H17.9076C17.4915 26.6865 17.1542 26.3435 17.1542 25.9202V16.1572Z" fill="#5E94FF"/>
<path d="M19.2265 29.6797C22.8733 27.7322 26.1267 27.7322 29.7734 29.6797C32.6684 31.2256 34.6805 35.8493 35.4513 37.8894C35.6345 38.3743 35.2778 38.8751 34.767 38.8751H14.233C13.7222 38.8751 13.3655 38.3743 13.5487 37.8894C14.3195 35.8493 16.3316 31.2256 19.2265 29.6797Z" fill="#5E94FF"/>
</svg>
