<svg width="15" height="20" viewBox="0 0 15 20" fill="none" xmlns="http://www.w3.org/2000/svg">
<path d="M14.7173 14.79L13.4854 13.5V8.5C13.4854 5.43 11.9194 2.86 9.18834 2.18V1.5C9.18834 0.67 8.54855 0 7.75598 0C6.96341 0 6.32362 0.67 6.32362 1.5V2.18C3.58303 2.86 2.02654 5.42 2.02654 8.5V13.5L0.794705 14.79C0.193113 15.42 0.613272 16.5 1.46314 16.5H14.0393C14.8987 16.5 15.3188 15.42 14.7173 14.79ZM11.5756 14.5H3.93635V8.5C3.93635 6.02 5.37826 4 7.75598 4C10.1337 4 11.5756 6.02 11.5756 8.5V14.5ZM7.75598 19.5C8.80638 19.5 9.66579 18.6 9.66579 17.5H5.84616C5.84616 18.6 6.69603 19.5 7.75598 19.5Z" fill="#5E94FF"/>
</svg>
