<svg width="36" height="47" viewBox="0 0 36 47" fill="none" xmlns="http://www.w3.org/2000/svg">
<path d="M22.9803 29.5739H24.2303C24.5619 29.5739 24.8798 29.7056 25.1142 29.94C25.3487 30.1744 25.4803 30.4924 25.4803 30.8239C25.4803 30.9897 25.5462 31.1486 25.6634 31.2659C25.7806 31.3831 25.9396 31.4489 26.1053 31.4489C26.2711 31.4489 26.4301 31.3831 26.5473 31.2659C26.6645 31.1486 26.7303 30.9897 26.7303 30.8239C26.7284 30.1615 26.4643 29.5267 25.9959 29.0583C25.5275 28.5899 24.8928 28.3259 24.2303 28.3239V27.6989C24.2303 27.5332 24.1645 27.3742 24.0473 27.257C23.9301 27.1398 23.7711 27.0739 23.6053 27.0739C23.4396 27.0739 23.2806 27.1398 23.1634 27.257C23.0462 27.3742 22.9803 27.5332 22.9803 27.6989V28.3239C22.3173 28.3239 21.6814 28.5873 21.2126 29.0561C20.7437 29.525 20.4803 30.1609 20.4803 30.8239C20.4803 31.487 20.7437 32.1228 21.2126 32.5917C21.6814 33.0605 22.3173 33.3239 22.9803 33.3239H24.2303C24.5619 33.3239 24.8798 33.4556 25.1142 33.69C25.3487 33.9244 25.4803 34.2424 25.4803 34.5739C25.4803 34.9054 25.3487 35.2234 25.1142 35.4578C24.8798 35.6922 24.5619 35.8239 24.2303 35.8239H22.9803C22.6488 35.8239 22.3309 35.6922 22.0965 35.4578C21.862 35.2234 21.7303 34.9054 21.7303 34.5739C21.7303 34.4082 21.6645 34.2492 21.5473 34.132C21.4301 34.0148 21.2711 33.9489 21.1053 33.9489C20.9396 33.9489 20.7806 34.0148 20.6634 34.132C20.5462 34.2492 20.4803 34.4082 20.4803 34.5739C20.4803 35.237 20.7437 35.8728 21.2126 36.3417C21.6814 36.8105 22.3173 37.0739 22.9803 37.0739V37.6989C22.9803 37.8647 23.0462 38.0236 23.1634 38.1409C23.2806 38.2581 23.4396 38.3239 23.6053 38.3239C23.7711 38.3239 23.9301 38.2581 24.0473 38.1409C24.1645 38.0236 24.2303 37.8647 24.2303 37.6989V37.0739C24.8934 37.0739 25.5293 36.8105 25.9981 36.3417C26.467 35.8728 26.7303 35.237 26.7303 34.5739C26.7303 33.9109 26.467 33.275 25.9981 32.8061C25.5293 32.3373 24.8934 32.0739 24.2303 32.0739H22.9803C22.6488 32.0739 22.3309 31.9422 22.0965 31.7078C21.862 31.4734 21.7303 31.1554 21.7303 30.8239C21.7303 30.4924 21.862 30.1744 22.0965 29.94C22.3309 29.7056 22.6488 29.5739 22.9803 29.5739ZM23.6053 24.5739C23.3928 24.5739 23.1803 24.5864 22.9803 24.5989V3.94891C22.9803 3.12011 22.6511 2.32526 22.0651 1.7392C21.479 1.15315 20.6841 0.823914 19.8553 0.823914L3.60535 0.823914C2.77655 0.823914 1.98169 1.15315 1.39564 1.7392C0.809587 2.32526 0.480347 3.12011 0.480347 3.94891V37.6989C0.480347 38.5277 0.809587 39.3226 1.39564 39.9086C1.98169 40.4947 2.77655 40.8239 3.60535 40.8239H19.8553C20.3461 40.8234 20.8299 40.7078 21.2678 40.4864C22.0274 40.7078 22.8142 40.8214 23.6053 40.8239C25.7602 40.8239 27.8269 39.9679 29.3506 38.4442C30.8743 36.9204 31.7303 34.8538 31.7303 32.6989C31.7303 30.544 30.8743 28.4774 29.3506 26.9537C27.8269 25.4299 25.7602 24.5739 23.6053 24.5739ZM3.60535 39.5739C3.10807 39.5739 2.63115 39.3764 2.27952 39.0247C1.92789 38.6731 1.73035 38.1962 1.73035 37.6989V3.94891C1.73035 3.45163 1.92789 2.97472 2.27952 2.62309C2.63115 2.27146 3.10807 2.07391 3.60535 2.07391H19.8553C20.3526 2.07391 20.8295 2.27146 21.1812 2.62309C21.5328 2.97472 21.7303 3.45163 21.7303 3.94891V24.7989C21.3041 24.9001 20.8862 25.0338 20.4803 25.1989V5.19891C20.4803 4.70163 20.2828 4.22472 19.9312 3.87309C19.5795 3.52146 19.1026 3.32391 18.6053 3.32391H15.9928C15.4962 3.32652 15.0204 3.52402 14.6678 3.87391L14.1553 4.38641C14.0996 4.44652 14.0318 4.49427 13.9565 4.52656C13.8811 4.55886 13.7998 4.57499 13.7178 4.57391H9.74285C9.66087 4.57499 9.57957 4.55886 9.50421 4.52656C9.42885 4.49427 9.36111 4.44652 9.30535 4.38641L8.79285 3.87391C8.44033 3.52402 7.96452 3.32652 7.46785 3.32391H4.85535C4.35807 3.32391 3.88115 3.52146 3.52952 3.87309C3.17789 4.22472 2.98035 4.70163 2.98035 5.19891V32.6989C2.98035 32.8647 3.04619 33.0236 3.1634 33.1409C3.28061 33.2581 3.43959 33.3239 3.60535 33.3239H15.5053C15.6018 34.5899 15.9949 35.8153 16.6529 36.9011C17.3109 37.9869 18.2153 38.9025 19.2928 39.5739H3.60535ZM19.2303 5.19891V25.8614C18.1707 26.5377 17.2826 27.4509 16.6362 28.529C15.9898 29.6071 15.6026 30.8206 15.5053 32.0739H4.23035V5.19891C4.23035 5.03315 4.29619 4.87418 4.4134 4.75697C4.53061 4.63976 4.68959 4.57391 4.85535 4.57391H7.46785C7.54983 4.57284 7.63112 4.58897 7.70648 4.62126C7.78184 4.65356 7.84959 4.70131 7.90535 4.76141L8.41785 5.27391C8.77037 5.62381 9.24617 5.82131 9.74285 5.82391H13.7178C14.2145 5.82131 14.6903 5.62381 15.0428 5.27391L15.5553 4.76141C15.6111 4.70131 15.6789 4.65356 15.7542 4.62126C15.8296 4.58897 15.9109 4.57284 15.9928 4.57391H18.6053C18.7711 4.57391 18.9301 4.63976 19.0473 4.75697C19.1645 4.87418 19.2303 5.03315 19.2303 5.19891ZM23.6053 39.5739C23.2109 39.5749 22.8174 39.5372 22.4303 39.4614C20.937 39.2168 19.5684 38.4798 18.5423 37.3676C17.5162 36.2555 16.8916 34.8321 16.7678 33.3239C16.7178 32.9087 16.7178 32.4891 16.7678 32.0739C16.8475 31.1702 17.1063 30.2915 17.5291 29.4888C17.9518 28.6862 18.5302 27.9757 19.2303 27.3989C19.6165 27.0838 20.0356 26.8114 20.4803 26.5864C20.8782 26.3761 21.2972 26.2085 21.7303 26.0864C22.1378 25.9671 22.5569 25.8917 22.9803 25.8614C23.1877 25.8361 23.3964 25.8236 23.6053 25.8239C25.4287 25.8239 27.1774 26.5482 28.4667 27.8376C29.756 29.1269 30.4803 30.8755 30.4803 32.6989C30.4803 34.5223 29.756 36.271 28.4667 37.5603C27.1774 38.8496 25.4287 39.5739 23.6053 39.5739ZM11.7303 34.5739C11.3595 34.5739 10.997 34.6839 10.6887 34.8899C10.3803 35.0959 10.14 35.3888 9.99807 35.7314C9.85616 36.074 9.81903 36.451 9.89137 36.8147C9.96372 37.1784 10.1423 37.5125 10.4045 37.7747C10.6667 38.037 11.0008 38.2155 11.3646 38.2879C11.7283 38.3602 12.1053 38.3231 12.4479 38.1812C12.7905 38.0393 13.0833 37.799 13.2894 37.4906C13.4954 37.1823 13.6053 36.8198 13.6053 36.4489C13.6053 35.9516 13.4078 35.4747 13.0562 35.1231C12.7045 34.7715 12.2276 34.5739 11.7303 34.5739ZM11.7303 37.0739C11.6067 37.0739 11.4859 37.0373 11.3831 36.9686C11.2803 36.8999 11.2002 36.8023 11.1529 36.6881C11.1056 36.5739 11.0932 36.4482 11.1174 36.327C11.1415 36.2057 11.201 36.0944 11.2884 36.007C11.3758 35.9196 11.4872 35.86 11.6084 35.8359C11.7297 35.8118 11.8553 35.8242 11.9695 35.8715C12.0837 35.9188 12.1813 35.9989 12.25 36.1017C12.3187 36.2045 12.3553 36.3253 12.3553 36.4489C12.3553 36.6147 12.2895 36.7736 12.1723 36.8909C12.0551 37.0081 11.8961 37.0739 11.7303 37.0739Z" fill="white"/>
<path d="M23.2283 32.6045C25.3982 33.6416 27.0781 35.1209 28.0502 36.6498C29.0267 38.1858 29.2519 39.6995 28.6836 40.8885C28.1153 42.0774 26.796 42.8529 24.9874 43.0576C23.1872 43.2615 20.9809 42.8834 18.811 41.8462C16.6411 40.8091 14.9613 39.3297 13.9892 37.8008C13.0126 36.2649 12.7874 34.7511 13.3557 33.5622C13.924 32.3733 15.2434 31.5978 17.0519 31.393C18.8522 31.1892 21.0584 31.5673 23.2283 32.6045Z" fill="#303030" stroke="white"/>
<path d="M24.2283 29.6045C26.3982 30.6416 28.0781 32.1209 29.0502 33.6498C30.0267 35.1858 30.2519 36.6995 29.6836 37.8885C29.1153 39.0774 27.796 39.8529 25.9874 40.0576C24.1872 40.2615 21.9809 39.8834 19.811 38.8462C17.6411 37.8091 15.9613 36.3297 14.9892 34.8008C14.0126 33.2649 13.7874 31.7511 14.3557 30.5622C14.924 29.3733 16.2434 28.5978 18.0519 28.393C19.8522 28.1892 22.0584 28.5673 24.2283 29.6045Z" fill="#303030" stroke="white"/>
<path d="M26.2283 26.6045C28.3982 27.6416 30.0781 29.1209 31.0502 30.6498C32.0267 32.1858 32.2519 33.6995 31.6836 34.8885C31.1153 36.0774 29.796 36.8529 27.9874 37.0576C26.1872 37.2615 23.9809 36.8834 21.811 35.8462C19.6411 34.8091 17.9613 33.3297 16.9892 31.8008C16.0126 30.2649 15.7874 28.7511 16.3557 27.5622C16.924 26.3733 18.2434 25.5978 20.0519 25.393C21.8522 25.1892 24.0584 25.5673 26.2283 26.6045Z" fill="#303030" stroke="white"/>
<path d="M27.189 23.1538C29.3589 24.1909 31.0388 25.6702 32.0108 27.1992C32.9874 28.7351 33.2126 30.2489 32.6443 31.4378C32.076 32.6267 30.7567 33.4022 28.9481 33.607C27.1478 33.8108 24.9416 33.4327 22.7717 32.3955C20.6018 31.3584 18.922 29.8791 17.9499 28.3501C16.9733 26.8142 16.7481 25.3005 17.3164 24.1115C17.8847 22.9226 19.2041 22.1471 21.0126 21.9423C22.8129 21.7385 25.0191 22.1166 27.189 23.1538Z" fill="#303030" stroke="white"/>
<path d="M22.4178 26.5498L22.7368 25.8824C22.8214 25.7054 23.015 25.5894 23.2751 25.56C23.5351 25.5305 23.8403 25.59 24.1235 25.7254C24.2651 25.7931 24.4177 25.8228 24.5478 25.8081C24.6778 25.7934 24.7746 25.7354 24.8169 25.6469C24.8592 25.5584 24.8435 25.4466 24.7733 25.3362C24.7031 25.2258 24.5841 25.1257 24.4425 25.058C23.8761 24.7886 23.2666 24.6704 22.7469 24.7293C22.2272 24.7881 21.8397 25.0192 21.669 25.372L21.1351 25.1169C20.9935 25.0492 20.8409 25.0194 20.7109 25.0342C20.5809 25.0489 20.484 25.1069 20.4417 25.1954C20.3994 25.2839 20.4151 25.3956 20.4853 25.5061C20.5555 25.6165 20.6745 25.7165 20.8161 25.7842L21.35 26.0394C21.1808 26.3934 21.2435 26.8404 21.5244 27.2822C21.8053 27.7239 22.2812 28.1242 22.8476 28.3949C23.414 28.6656 24.0244 28.7846 24.5445 28.7257C25.0646 28.6668 25.4519 28.4348 25.6211 28.0809L25.9401 27.4135C26.0247 27.2365 26.2183 27.1205 26.4784 27.0911C26.7385 27.0616 27.0437 27.1211 27.3268 27.2565C27.61 27.3918 27.848 27.592 27.9884 27.8128C28.1289 28.0337 28.1602 28.2572 28.0756 28.4342L27.7567 29.1016C27.6721 29.2786 27.4784 29.3946 27.2184 29.424C26.9583 29.4534 26.6531 29.3939 26.3699 29.2586C26.2283 29.1909 26.0757 29.1612 25.9457 29.1759C25.8156 29.1906 25.7188 29.2486 25.6765 29.3371C25.6342 29.4256 25.6499 29.5373 25.7201 29.6478C25.7903 29.7582 25.9093 29.8583 26.0509 29.926C26.6173 30.1967 27.2277 30.3157 27.7478 30.2568C28.268 30.1979 28.6552 29.9659 28.8244 29.6119L29.3583 29.8671C29.4999 29.9348 29.6525 29.9645 29.7825 29.9498C29.9126 29.9351 30.0094 29.8771 30.0517 29.7886C30.094 29.7001 30.0783 29.5884 30.0081 29.4779C29.9379 29.3675 29.8189 29.2674 29.6773 29.1998L29.1434 28.9446C29.3126 28.5906 29.2499 28.1435 28.969 27.7018C28.6882 27.2601 28.2122 26.8598 27.6458 26.5891C27.0794 26.3184 26.469 26.1994 25.9489 26.2583C25.4288 26.3172 25.0415 26.5491 24.8723 26.9031L24.5533 27.5705C24.4687 27.7475 24.2751 27.8635 24.015 27.8929C23.755 27.9224 23.4498 27.8629 23.1666 27.7275C22.8834 27.5921 22.6454 27.392 22.505 27.1712C22.3646 26.9503 22.3332 26.7268 22.4178 26.5498Z" fill="white"/>
<path d="M9.23035 15.5989L11.9803 17.5239L14.7303 13.6739M17.4803 15.3239C17.4803 18.3615 15.0179 20.8239 11.9803 20.8239C8.94278 20.8239 6.48035 18.3615 6.48035 15.3239C6.48035 12.2863 8.94278 9.82391 11.9803 9.82391C15.0179 9.82391 17.4803 12.2863 17.4803 15.3239Z" stroke="#5E94FF" stroke-width="1.4" stroke-linecap="round"/>
</svg>
