<svg width="48" height="35" viewBox="0 0 48 35" fill="none" xmlns="http://www.w3.org/2000/svg">
<path d="M40.3636 3.48183L40.3659 3.48181C40.8645 3.47803 41.3589 3.57345 41.8202 3.7625C42.2816 3.95156 42.7008 4.23049 43.0533 4.58305C43.4059 4.93562 43.6848 5.35478 43.8739 5.81614C44.0629 6.27751 44.1583 6.77187 44.1545 7.27045V7.27273V27.7273C44.1545 29.8453 42.4817 31.5182 40.3636 31.5182H7.63636C5.5183 31.5182 3.84545 29.8453 3.84545 27.7273V7.27273C3.84545 5.15467 5.5183 3.48182 7.63636 3.48182L40.3636 3.48183ZM40.3636 34.1636C43.9115 34.1636 46.8 31.2751 46.8 27.7273V7.27273C46.8 3.72489 43.9115 0.836368 40.3636 0.836368H7.63636C4.08852 0.836368 1.2 3.72489 1.2 7.27273V27.7273C1.2 31.2751 4.08852 34.1636 7.63636 34.1636H40.3636ZM30.1364 6.97273C24.3344 6.97273 19.6091 11.6981 19.6091 17.5C19.6091 23.3019 24.3344 28.0273 30.1364 28.0273C35.9383 28.0273 40.6636 23.3019 40.6636 17.5C40.6636 11.6981 35.9383 6.97273 30.1364 6.97273ZM30.1364 9.61819C34.5014 9.61819 38.0182 13.135 38.0182 17.5C38.0182 21.865 34.5014 25.3818 30.1364 25.3818C25.7714 25.3818 22.2545 21.865 22.2545 17.5C22.2545 13.135 25.7714 9.61819 30.1364 9.61819Z" fill="white" stroke="white" stroke-width="0.6"/>
<path d="M15.9818 10.0172C15.9818 8.1691 14.4617 6.64899 12.6136 6.64899H10.5682C8.72011 6.64899 7.2 8.1691 7.2 10.0172C7.2 11.8652 8.72011 13.3854 10.5682 13.3854H12.6136C14.4617 13.3854 15.9818 11.8652 15.9818 10.0172ZM10.5682 9.29444H12.6136C13.0319 9.29444 13.3364 9.59888 13.3364 10.0172C13.3364 10.4355 13.0319 10.7399 12.6136 10.7399H10.5682C10.1499 10.7399 9.84545 10.4355 9.84545 10.0172C9.84545 9.59888 10.1499 9.29444 10.5682 9.29444Z" fill="#5E94FF" stroke="#5E94FF" stroke-width="0.6"/>
</svg>
