<svg width="48" height="41" viewBox="0 0 48 41" fill="none" xmlns="http://www.w3.org/2000/svg">
<path d="M16.5064 23.556C7.94166 23.556 1 30.4977 1 39.0624H32.0127C32.0127 30.4977 25.0711 23.556 16.5064 23.556ZM16.5064 23.556C12.7473 23.556 9.69252 19.0498 9.69252 15.2907C9.69252 11.5316 12.7464 8.47687 16.5064 8.47687C20.2663 8.47687 23.3193 11.5308 23.3193 15.2907C23.3193 19.0506 20.2654 23.556 16.5064 23.556Z" stroke="black" stroke-width="2" stroke-miterlimit="10" stroke-linecap="round" stroke-linejoin="round"/>
<path d="M16.5064 23.556C7.94166 23.556 1 30.4977 1 39.0624H32.0127C32.0127 30.4977 25.0711 23.556 16.5064 23.556ZM16.5064 23.556C12.7473 23.556 9.69252 19.0498 9.69252 15.2907C9.69252 11.5316 12.7464 8.47687 16.5064 8.47687C20.2663 8.47687 23.3193 11.5308 23.3193 15.2907C23.3193 19.0506 20.2654 23.556 16.5064 23.556Z" stroke="white" stroke-width="2" stroke-miterlimit="10" stroke-linecap="round" stroke-linejoin="round"/>
<path d="M34.225 5.37937C34.225 4.06527 35.8972 3 37.96 3C40.0228 3 41.695 4.06527 41.695 5.37937C41.695 6.69345 40.0228 7.75875 37.96 7.75875C35.8972 7.75875 34.225 6.69345 34.225 5.37937ZM47.4338 5.42475C46.7856 5.01176 45.7345 5.01176 45.0862 5.42475L40.5924 8.2875H35.3275L30.8338 5.42475C30.1855 5.01176 29.1344 5.01176 28.4862 5.42475C27.8379 5.83774 27.8379 6.5073 28.4862 6.92028L33.395 10.0474V18.8625C33.395 19.4465 34.1382 19.92 35.055 19.92H35.885C36.8018 19.92 37.545 19.4465 37.545 18.8625V15.1613H38.375V18.8625C38.375 19.4465 39.1182 19.92 40.035 19.92H40.865C41.7818 19.92 42.525 19.4465 42.525 18.8625V10.0474L47.4338 6.92025C48.0821 6.50727 48.0821 5.83774 47.4338 5.42475Z" fill="#5E94FF"/>
</svg>
