<svg width="43" height="41" viewBox="0 0 43 41" fill="none" xmlns="http://www.w3.org/2000/svg">
<path d="M16.5064 23.556C7.94166 23.556 1 30.4977 1 39.0624H32.0127C32.0127 30.4977 25.0711 23.556 16.5064 23.556ZM16.5064 23.556C12.7473 23.556 9.69252 19.0498 9.69252 15.2907C9.69252 11.5316 12.7464 8.47687 16.5064 8.47687C20.2663 8.47687 23.3193 11.5308 23.3193 15.2907C23.3193 19.0506 20.2654 23.556 16.5064 23.556Z" stroke="black" stroke-width="2" stroke-miterlimit="10" stroke-linecap="round" stroke-linejoin="round"/>
<path d="M16.5064 23.556C7.94166 23.556 1 30.4977 1 39.0624H32.0127C32.0127 30.4977 25.0711 23.556 16.5064 23.556ZM16.5064 23.556C12.7473 23.556 9.69252 19.0498 9.69252 15.2907C9.69252 11.5316 12.7464 8.47687 16.5064 8.47687C20.2663 8.47687 23.3193 11.5308 23.3193 15.2907C23.3193 19.0506 20.2654 23.556 16.5064 23.556Z" stroke="black" stroke-width="2" stroke-miterlimit="10" stroke-linecap="round" stroke-linejoin="round"/>
<path d="M34.46 3C29.7865 3 26 6.78653 26 11.46C26 16.1335 29.7865 19.92 34.46 19.92C39.1335 19.92 42.92 16.1335 42.92 11.46C42.92 6.78653 39.1335 3 34.46 3ZM39.3723 12.4152C39.3723 12.6403 39.188 12.8245 38.9629 12.8245H35.8245V15.9629C35.8245 16.188 35.6403 16.3723 35.4152 16.3723H33.5048C33.2797 16.3723 33.0955 16.188 33.0955 15.9629V12.8245H29.9571C29.732 12.8245 29.5477 12.6403 29.5477 12.4152V10.5048C29.5477 10.2797 29.732 10.0955 29.9571 10.0955H33.0955V6.9571C33.0955 6.73195 33.2797 6.54774 33.5048 6.54774H35.4152C35.6403 6.54774 35.8245 6.73195 35.8245 6.9571V10.0955H38.9629C39.188 10.0955 39.3723 10.2797 39.3723 10.5048V12.4152Z" fill="#5E94FF"/>
</svg>
